<?xml version="1.0" standalone="no"?>
<!DOCTYPE svg PUBLIC "-//W3C//DTD SVG 20010904//EN"
 "http://www.w3.org/TR/2001/REC-SVG-20010904/DTD/svg10.dtd">
<svg version="1.0" xmlns="http://www.w3.org/2000/svg"
 width="5556.000000pt" height="5556.000000pt" viewBox="0 0 5556.000000 5556.000000"
 preserveAspectRatio="xMidYMid meet">

<g transform="translate(0.000000,5556.000000) scale(0.100000,-0.100000)"
fill="#000000" stroke="none">
<path d="M27010 49649 c-4020 -143 -7949 -1405 -11337 -3643 -751 -496 -1568
-1114 -2193 -1659 -69 -60 -154 -135 -190 -166 -278 -241 -680 -621 -1019
-961 -1094 -1100 -2091 -2342 -2911 -3630 -68 -107 -142 -224 -165 -260 -170
-266 -529 -891 -737 -1285 -1297 -2450 -2127 -5143 -2427 -7875 -99 -894 -138
-1689 -128 -2615 6 -556 13 -748 42 -1190 118 -1779 448 -3523 987 -5210 226
-710 455 -1320 783 -2090 174 -409 288 -642 354 -721 90 -111 234 -203 372
-241 85 -23 261 -23 348 0 291 78 500 334 518 633 9 152 -15 241 -137 504
-281 606 -572 1339 -802 2020 -702 2081 -1068 4266 -1068 6370 0 420 22 1241
40 1535 108 1700 499 3607 1087 5305 524 1515 1194 2906 2071 4299 85 137 433
659 520 782 26 37 78 111 117 165 105 150 466 629 606 804 408 514 848 1017
1269 1454 249 258 690 688 930 907 1212 1106 2490 2022 3965 2839 522 290
1225 631 1829 890 2148 918 4397 1461 6681 1615 488 33 718 39 1345 39 627 0
857 -6 1345 -39 1553 -105 3055 -379 4568 -835 243 -73 426 -133 877 -289 271
-93 451 -112 610 -65 193 57 375 229 447 424 70 189 52 420 -47 590 -67 115
-200 229 -340 293 -168 77 -806 290 -1305 436 -1767 516 -3542 802 -5410 871
-310 11 -1163 11 -1495 -1z"/>
<path d="M38643 46609 c-157 -15 -298 -82 -413 -198 -88 -89 -131 -158 -173
-278 -29 -82 -31 -97 -31 -223 0 -121 3 -143 28 -215 36 -104 86 -185 159
-257 72 -71 151 -126 432 -302 121 -75 283 -178 360 -227 231 -149 321 -187
471 -196 581 -37 951 631 608 1098 -57 78 -178 184 -313 273 -142 95 -592 374
-691 428 -142 79 -285 110 -437 97z"/>
<path d="M27565 44444 c-748 -60 -1357 -293 -1935 -740 -149 -115 -460 -426
-578 -579 -404 -521 -631 -1065 -724 -1735 -21 -150 -17 -712 5 -865 28 -187
63 -350 112 -520 267 -920 920 -1702 1782 -2133 243 -122 550 -233 770 -279
l83 -17 0 -2141 0 -2141 -91 -13 c-843 -112 -1715 -462 -2434 -977 l-184 -132
-1511 1510 c-831 831 -1509 1516 -1507 1522 3 6 30 52 61 101 67 106 208 385
255 505 306 776 332 1617 75 2396 -97 295 -218 545 -388 804 -580 880 -1505
1446 -2541 1555 -186 19 -547 19 -730 0 -1161 -123 -2157 -799 -2717 -1845
-147 -273 -280 -664 -338 -990 -51 -289 -65 -694 -35 -985 97 -923 561 -1769
1289 -2348 596 -475 1294 -730 2061 -754 481 -15 947 67 1405 248 120 47 399
188 505 255 50 31 95 58 101 61 6 2 691 -676 1522 -1507 l1510 -1511 -131
-184 c-516 -718 -866 -1591 -978 -2434 l-13 -91 -2141 0 -2141 0 -17 83 c-94
453 -362 1003 -676 1392 -596 735 -1454 1198 -2386 1285 -144 13 -512 13 -651
-1 -833 -82 -1581 -444 -2165 -1047 -535 -552 -861 -1240 -955 -2012 -22 -177
-25 -590 -6 -755 96 -825 433 -1528 1012 -2105 558 -557 1268 -896 2075 -992
168 -19 607 -16 780 6 258 33 454 78 700 161 502 168 943 441 1324 818 465
460 771 993 931 1621 l39 151 2138 3 2138 2 18 -127 c126 -890 500 -1781 1059
-2523 l49 -64 -1512 -1512 c-832 -832 -1515 -1511 -1518 -1510 -3 2 -58 35
-121 74 -404 244 -841 398 -1333 468 -154 22 -597 30 -769 14 -711 -64 -1365
-334 -1916 -792 -175 -146 -413 -396 -554 -583 -305 -406 -531 -916 -627
-1415 -47 -246 -55 -343 -55 -660 -1 -327 9 -444 60 -697 184 -914 730 -1716
1515 -2226 458 -298 940 -469 1519 -539 139 -17 581 -17 735 0 970 108 1813
588 2416 1377 510 667 761 1585 669 2441 -57 527 -239 1055 -507 1477 -24 37
-43 70 -43 73 0 9 3016 3024 3024 3024 4 0 52 -34 106 -75 55 -41 170 -122
257 -179 595 -391 1253 -662 1945 -801 107 -21 366 -65 391 -65 4 0 7 -963 7
-2140 l0 -2140 -27 -6 c-955 -209 -1766 -794 -2265 -1632 -196 -331 -345 -720
-419 -1097 -52 -262 -74 -705 -50 -972 40 -439 148 -824 341 -1218 174 -355
371 -633 652 -916 539 -546 1202 -881 1978 -1001 128 -19 184 -22 480 -23 344
0 422 6 655 51 641 123 1222 417 1701 858 848 781 1252 1916 1088 3056 -147
1019 -755 1932 -1646 2471 -309 187 -687 340 -1020 413 l-78 17 0 2139 0 2139
48 6 c920 124 1816 488 2567 1045 l96 72 42 -39 c58 -54 2924 -2920 2958
-2959 l28 -31 -27 -39 c-14 -21 -58 -95 -97 -164 -220 -391 -354 -793 -422
-1270 -14 -99 -17 -191 -17 -440 0 -329 7 -412 55 -660 173 -886 661 -1642
1402 -2172 469 -335 988 -536 1592 -615 166 -21 628 -24 790 -5 799 98 1481
420 2044 967 1323 1285 1405 3394 187 4779 -559 635 -1304 1034 -2151 1152
-161 22 -606 30 -774 14 -432 -41 -848 -158 -1217 -341 -107 -53 -279 -151
-355 -202 l-26 -17 -1473 1472 c-810 810 -1491 1492 -1513 1515 l-39 42 72 96
c540 729 901 1593 1030 2473 11 73 20 135 20 138 0 2 962 4 2139 4 l2138 0 32
-131 c219 -898 796 -1679 1596 -2159 853 -511 1900 -629 2850 -320 1124 366
2006 1305 2290 2440 86 344 100 468 100 870 -1 375 -12 477 -81 778 -190 822
-680 1551 -1379 2049 -346 247 -767 439 -1180 538 -314 76 -544 100 -907 92
-384 -8 -638 -50 -987 -162 -1048 -339 -1889 -1179 -2230 -2228 -34 -104 -73
-248 -95 -349 l-6 -28 -2140 0 c-1177 0 -2140 2 -2140 5 0 3 -7 51 -15 108
-121 815 -422 1591 -883 2279 -50 75 -121 176 -157 223 -36 46 -65 88 -65 91
0 4 679 686 1510 1516 l1509 1510 119 -71 c446 -267 902 -421 1427 -483 145
-17 607 -17 745 0 697 86 1270 324 1805 749 141 111 416 386 529 528 423 531
673 1138 748 1810 19 178 17 606 -5 780 -131 1032 -676 1911 -1547 2492 -421
282 -906 462 -1451 540 -179 25 -720 25 -899 0 -684 -97 -1264 -352 -1785
-785 -117 -97 -340 -322 -438 -441 -456 -553 -723 -1201 -788 -1910 -15 -171
-6 -613 15 -768 44 -308 112 -564 225 -847 75 -187 157 -346 301 -581 l19 -31
-1512 -1512 -1512 -1512 -125 92 c-735 538 -1601 895 -2468 1016 l-122 17 2
2138 3 2138 155 40 c153 39 188 50 365 114 713 260 1365 804 1764 1474 249
417 404 869 467 1366 22 173 25 611 5 785 -83 729 -379 1392 -864 1937 -63 70
-139 150 -168 178 -144 132 -249 222 -336 287 -521 384 -1078 605 -1713 678
-99 11 -498 21 -585 14z m416 -1394 c700 -71 1316 -489 1643 -1113 102 -194
167 -385 208 -613 30 -168 32 -510 5 -669 -77 -442 -264 -813 -567 -1129 -337
-350 -838 -589 -1310 -623 -153 -12 -435 1 -565 26 -201 37 -426 118 -613 220
-905 493 -1312 1571 -960 2541 322 887 1223 1454 2159 1360z m-9246 -3876
c1025 -138 1795 -1023 1795 -2064 0 -453 -152 -902 -428 -1265 -64 -84 -262
-285 -352 -358 -361 -292 -830 -457 -1300 -457 -954 0 -1792 651 -2020 1569
-81 324 -84 666 -10 986 179 776 796 1386 1575 1559 247 55 484 65 740 30z
m18665 -1 c1115 -151 1914 -1191 1775 -2311 -37 -294 -143 -600 -292 -842
-207 -335 -519 -614 -876 -785 -276 -132 -516 -191 -822 -202 -806 -30 -1548
400 -1922 1113 -597 1139 -20 2554 1204 2948 301 97 609 123 933 79z m-9360
-7233 c871 -59 1663 -366 2344 -910 151 -121 391 -351 530 -510 585 -664 939
-1501 1017 -2399 17 -201 6 -675 -20 -871 -127 -933 -532 -1753 -1190 -2411
-659 -658 -1479 -1063 -2411 -1190 -198 -26 -650 -37 -864 -20 -1010 82 -1933
516 -2646 1247 -212 217 -347 384 -505 624 -690 1047 -868 2351 -485 3555 123
387 351 836 597 1173 249 342 582 675 925 925 340 248 776 469 1173 596 497
159 1030 225 1535 191z m-13200 -2091 c721 -82 1370 -573 1660 -1254 114 -269
160 -499 161 -811 1 -336 -58 -602 -200 -900 -293 -615 -862 -1039 -1556
-1161 -157 -27 -511 -25 -670 5 -450 84 -826 281 -1132 594 -412 419 -623 964
-600 1543 29 699 408 1339 1010 1703 394 238 852 335 1327 281z m26418 -5
c679 -89 1288 -533 1587 -1158 147 -305 208 -578 207 -916 -1 -521 -190 -1002
-548 -1399 -142 -158 -389 -343 -589 -443 -296 -148 -551 -214 -875 -225 -345
-12 -674 59 -985 211 -591 291 -1003 835 -1132 1493 -24 125 -27 160 -27 368
0 246 9 328 60 530 160 629 631 1164 1241 1409 342 137 684 179 1061 130z
m-22518 -9331 c639 -86 1210 -479 1529 -1053 115 -208 190 -424 237 -685 25
-139 25 -497 1 -640 -122 -703 -539 -1263 -1160 -1560 -703 -336 -1521 -256
-2150 212 -119 89 -304 272 -398 393 -220 287 -362 625 -414 992 -19 137 -19
417 0 560 122 883 783 1586 1657 1763 226 45 453 51 698 18z m18659 1 c661
-87 1265 -519 1564 -1119 105 -211 164 -393 204 -630 24 -148 24 -485 -1 -630
-119 -695 -527 -1249 -1141 -1551 -310 -152 -563 -209 -925 -208 -249 1 -367
16 -569 75 -793 228 -1369 896 -1486 1720 -17 122 -20 407 -4 529 45 370 192
729 417 1025 69 90 266 289 357 360 161 126 383 252 560 318 323 121 664 158
1024 111z m-9244 -3878 c651 -123 1200 -540 1490 -1131 155 -314 225 -641 212
-990 -9 -243 -53 -464 -134 -669 -283 -718 -897 -1208 -1658 -1321 -133 -20
-402 -23 -535 -6 -859 110 -1560 727 -1771 1558 -62 245 -80 561 -44 798 101
685 520 1268 1130 1573 211 105 433 175 640 201 50 6 101 13 115 15 14 3 113
3 220 1 159 -2 221 -8 335 -29z"/>
<path d="M27087 29863 c-4 -3 -7 -316 -7 -695 l0 -688 -692 -2 -693 -3 -3
-692 -2 -693 695 0 695 0 0 -695 0 -695 695 0 695 0 0 695 0 695 695 0 695 0
0 695 0 695 -695 0 -695 0 0 695 0 695 -688 0 c-379 0 -692 -3 -695 -7z m1383
-2078 l0 -695 -695 0 -695 0 0 688 c0 379 3 692 7 695 3 4 316 7 695 7 l688 0
0 -695z"/>
<path d="M42122 43880 c-398 -104 -622 -544 -476 -933 42 -110 97 -182 258
-337 781 -750 1416 -1454 2056 -2280 79 -102 171 -221 205 -265 185 -238 380
-337 634 -322 179 10 317 72 446 202 89 90 135 160 171 264 73 211 46 423 -82
627 -82 132 -574 750 -924 1159 -412 483 -751 848 -1279 1375 -335 335 -419
408 -530 461 -146 70 -329 88 -479 49z"/>
<path d="M46759 37472 c-123 -35 -216 -89 -304 -177 -120 -120 -180 -237 -206
-405 -27 -175 5 -296 178 -665 137 -293 395 -910 509 -1220 18 -49 45 -121 59
-160 295 -784 577 -1735 769 -2595 429 -1922 577 -3861 446 -5830 -139 -2073
-605 -4152 -1367 -6100 -100 -256 -298 -730 -376 -900 -13 -30 -59 -131 -102
-225 -103 -229 -399 -826 -524 -1057 -604 -1125 -1206 -2046 -1990 -3048 -737
-942 -1716 -1966 -2654 -2778 -514 -444 -1129 -923 -1647 -1284 -1133 -787
-2238 -1413 -3445 -1950 -2244 -999 -4635 -1588 -7075 -1743 -489 -31 -798
-37 -1449 -32 -627 5 -751 10 -1216 42 -2659 188 -5337 921 -7745 2121 -484
242 -791 407 -1227 662 -1282 751 -2543 1695 -3628 2717 -510 481 -1016 1006
-1354 1405 -273 324 -368 412 -515 481 -329 154 -751 -2 -907 -336 -56 -120
-73 -203 -67 -332 11 -238 78 -345 552 -873 1050 -1168 2130 -2148 3381 -3066
1037 -761 2245 -1488 3385 -2034 1391 -667 2745 -1156 4219 -1525 2774 -694
5574 -842 8386 -444 718 101 1346 222 2115 405 1032 247 2276 659 3307 1095
1136 481 2243 1064 3308 1742 132 84 658 435 770 514 806 569 1493 1120 2215
1777 233 212 332 307 695 671 445 445 539 545 970 1029 594 668 1244 1519
1790 2346 1339 2026 2321 4229 2935 6590 634 2432 844 4959 619 7445 -206
2288 -770 4521 -1677 6640 -318 742 -349 804 -480 926 -80 75 -172 131 -262
161 -93 30 -299 35 -391 10z"/>
</g>
</svg>
